<?xml version="1.0" encoding="UTF-8"?><svg id="Layer_2" xmlns="http://www.w3.org/2000/svg" xmlns:xlink="http://www.w3.org/1999/xlink" viewBox="0 0 579.17 236.7"><defs><style>.cls-1{fill:#231f20;}.cls-2{fill:url(#radial-gradient);}</style><radialGradient id="radial-gradient" cx="52.79" cy="-11.82" fx="52.79" fy="-11.82" r="84.49" gradientUnits="userSpaceOnUse"><stop offset=".09" stop-color="#a8927a"/><stop offset=".44" stop-color="#a58f77"/><stop offset=".69" stop-color="#9e876d"/><stop offset=".91" stop-color="#937a5e"/><stop offset="1" stop-color="#8c7255"/></radialGradient></defs><g id="Layer_1-2"><g><g><path class="cls-1" d="m132.72,93.29h8.53l2,4.7h4.28l-9.11-21.25h-2.88l-9.11,21.25h4.28l2-4.7Zm4.25-9.93l2.7,6.28h-5.4l2.7-6.28Z"/><path class="cls-1" d="m163.01,98.3c2.4,0,4.73-.73,6.37-2.19,1.76-1.58,2.73-3.82,2.73-7.07v-12.29h-4.1v12.6c0,1.94-.52,3.13-1.4,3.95-.91.88-2.19,1.36-3.61,1.36s-2.7-.48-3.61-1.36c-.88-.82-1.4-2-1.4-3.95v-12.6h-4.1v12.29c0,3.25.97,5.49,2.73,7.07,1.64,1.46,3.98,2.19,6.37,2.19Z"/><path class="cls-1" d="m191.87,98.3c3.89,0,7.04-1.67,8.92-4.07v-9.44h-9.56v3.64h5.47v4.58c-1.22.97-2.79,1.64-4.74,1.64-4.1,0-7.25-3.16-7.25-7.28s3.03-7.29,7.07-7.29c2.09,0,3.89.91,5.16,2.19l2.64-2.79c-1.91-1.85-4.61-3.03-7.77-3.03-6.62,0-11.2,4.83-11.2,10.93s4.64,10.93,11.26,10.93Z"/><path class="cls-1" d="m219.15,98.3c2.4,0,4.73-.73,6.37-2.19,1.76-1.58,2.73-3.82,2.73-7.07v-12.29h-4.1v12.6c0,1.94-.52,3.13-1.4,3.95-.91.88-2.19,1.36-3.61,1.36s-2.7-.48-3.61-1.36c-.88-.82-1.4-2-1.4-3.95v-12.6h-4.1v12.29c0,3.25.97,5.49,2.73,7.07,1.64,1.46,3.98,2.19,6.37,2.19Z"/><path class="cls-1" d="m243.67,94.66c-1.94,0-3.79-1-5.01-2.34l-2.67,2.79c2.19,2,4.83,3.19,7.68,3.19,3.83,0,7.19-2.61,7.19-6.37,0-7.16-9.8-6.1-9.8-9.53,0-1.64,1.73-2.31,3.28-2.31,1.4,0,2.82.61,3.67,1.4l2.12-3.04c-2-1.49-4.01-2-6.16-2-3.52,0-7.01,2.19-7.01,5.98,0,2.4,1.34,3.85,3.01,4.83,2.85,1.67,6.8,2,6.8,4.74,0,1.55-1.27,2.67-3.1,2.67Z"/><polygon class="cls-1" points="262.7 98 266.8 98 266.8 80.39 272.41 80.39 272.41 76.75 257.09 76.75 257.09 80.39 262.7 80.39 262.7 98"/><polygon class="cls-1" points="293.81 94.35 284.86 94.35 284.86 88.44 291.38 88.44 291.38 84.79 284.86 84.79 284.86 80.39 293.51 80.39 293.51 76.75 280.76 76.75 280.76 98 293.81 98 293.81 94.35"/><path class="cls-1" d="m21.42,220.79c0-1.64,1.73-2.31,3.28-2.31,1.4,0,2.82.61,3.67,1.4l2.12-3.04c-2-1.49-4.01-2-6.16-2-3.52,0-7.01,2.19-7.01,5.98,0,2.4,1.34,3.85,3.01,4.83,2.85,1.67,6.8,2,6.8,4.74,0,1.55-1.27,2.67-3.1,2.67-1.94,0-3.79-1-5.01-2.34l-2.67,2.79c2.19,2,4.83,3.19,7.68,3.19,3.83,0,7.19-2.61,7.19-6.37,0-7.16-9.8-6.1-9.8-9.53Z"/><path class="cls-1" d="m50.62,233.05c-4.1,0-7.25-3.16-7.25-7.28s3.03-7.29,7.07-7.29c2.09,0,3.89.91,5.16,2.19l2.64-2.79c-1.91-1.85-4.61-3.03-7.77-3.03-6.62,0-11.2,4.83-11.2,10.93s4.64,10.93,11.26,10.93c3.89,0,7.04-1.67,8.93-4.07l-2.82-2.52c-1.25,1.61-3.25,2.94-6.01,2.94Z"/><polygon class="cls-1" points="82.97 223.19 72.35 223.19 72.35 215.15 68.25 215.15 68.25 236.39 72.35 236.39 72.35 226.83 82.97 226.83 82.97 236.39 87.07 236.39 87.07 215.15 82.97 215.15 82.97 223.19"/><path class="cls-1" d="m107.25,214.84c-6.56,0-11.08,4.89-11.08,10.93s4.52,10.93,11.08,10.93,11.08-4.89,11.08-10.93-4.52-10.93-11.08-10.93Zm0,18.21c-4.01,0-6.98-3.28-6.98-7.28s2.97-7.29,6.98-7.29,6.98,3.28,6.98,7.29-2.97,7.28-6.98,7.28Z"/><path class="cls-1" d="m138.05,214.84c-6.56,0-11.08,4.89-11.08,10.93s4.52,10.93,11.08,10.93,11.08-4.89,11.08-10.93-4.52-10.93-11.08-10.93Zm0,18.21c-4.01,0-6.98-3.28-6.98-7.28s2.97-7.29,6.98-7.29,6.98,3.28,6.98,7.29-2.97,7.28-6.98,7.28Z"/><polygon class="cls-1" points="162.33 215.15 158.23 215.15 158.23 236.39 171.28 236.39 171.28 232.75 162.33 232.75 162.33 215.15"/><path class="cls-1" d="m203.15,214.84c-6.56,0-11.08,4.89-11.08,10.93s4.52,10.93,11.08,10.93,11.08-4.89,11.08-10.93-4.52-10.93-11.08-10.93Zm0,18.21c-4.01,0-6.98-3.28-6.98-7.28s2.97-7.29,6.98-7.29,6.98,3.28,6.98,7.29-2.97,7.28-6.98,7.28Z"/><polygon class="cls-1" points="223.33 236.39 227.43 236.39 227.43 226.83 233.96 226.83 233.96 223.19 227.43 223.19 227.43 218.79 236.08 218.79 236.08 215.15 223.33 215.15 223.33 236.39"/><path class="cls-1" d="m268.07,233.05c-4.1,0-7.25-3.16-7.25-7.28s3.03-7.29,7.07-7.29c2.09,0,3.89.91,5.16,2.19l2.64-2.79c-1.91-1.85-4.61-3.03-7.77-3.03-6.62,0-11.2,4.83-11.2,10.93s4.64,10.93,11.26,10.93c3.89,0,7.04-1.67,8.93-4.07l-2.82-2.52c-1.25,1.61-3.25,2.94-6.01,2.94Z"/><path class="cls-1" d="m299.35,227.74c0,1.94-.52,3.13-1.4,3.95-.91.88-2.19,1.36-3.61,1.36s-2.7-.48-3.61-1.36c-.88-.82-1.4-2-1.4-3.95v-12.6h-4.1v12.29c0,3.25.97,5.49,2.73,7.07,1.64,1.46,3.98,2.19,6.37,2.19s4.73-.73,6.37-2.19c1.76-1.58,2.73-3.82,2.73-7.07v-12.29h-4.1v12.6Z"/><polygon class="cls-1" points="318.02 215.15 313.92 215.15 313.92 236.39 326.97 236.39 326.97 232.75 318.02 232.75 318.02 215.15"/><rect class="cls-1" x="335.92" y="215.15" width="4.1" height="21.25"/><polygon class="cls-1" points="365.36 228.99 353.53 215.15 350.64 215.15 350.64 236.39 354.74 236.39 354.74 222.55 366.58 236.39 369.46 236.39 369.46 215.15 365.36 215.15 365.36 228.99"/><path class="cls-1" d="m386.76,215.15l-9.11,21.25h4.28l2-4.7h8.53l2,4.7h4.28l-9.11-21.25h-2.88Zm-1.27,12.9l2.7-6.28,2.7,6.28h-5.4Z"/><path class="cls-1" d="m419.32,225.4c1.15-1.09,1.88-2.64,1.88-4.34s-.73-3.25-1.88-4.34c-1.06-.97-2.46-1.58-4.64-1.58h-7.74v21.25h4.1v-9.41h1.49l7.56,9.41h5.07l-7.95-9.74c.85-.27,1.55-.7,2.12-1.24Zm-2.82-2.7c-.36.39-.88.64-2.06.64h-3.4v-4.55h3.4c1.18,0,1.7.27,2.06.67.36.39.61,1,.61,1.64s-.24,1.22-.61,1.61Z"/><polygon class="cls-1" points="437.99 222.61 433.31 215.15 428.64 215.15 435.92 226.77 435.92 236.39 440.02 236.39 440.02 226.77 447.31 215.15 442.63 215.15 437.99 222.61"/><path class="cls-1" d="m475.07,215.15l-9.11,21.25h4.28l2-4.7h8.53l2,4.7h4.28l-9.11-21.25h-2.88Zm-1.27,12.9l2.7-6.28,2.7,6.28h-5.4Z"/><path class="cls-1" d="m507.64,225.4c1.15-1.09,1.88-2.64,1.88-4.34s-.73-3.25-1.88-4.34c-1.06-.97-2.46-1.58-4.64-1.58h-7.74v21.25h4.1v-9.41h1.49l7.56,9.41h5.07l-7.95-9.74c.85-.27,1.55-.7,2.12-1.24Zm-2.82-2.7c-.36.39-.88.64-2.06.64h-3.4v-4.55h3.4c1.18,0,1.7.27,2.06.67.36.39.61,1,.61,1.64s-.24,1.22-.61,1.61Z"/><polygon class="cls-1" points="518.17 218.79 523.78 218.79 523.78 236.39 527.88 236.39 527.88 218.79 533.49 218.79 533.49 215.15 518.17 215.15 518.17 218.79"/><path class="cls-1" d="m545.69,220.79c0-1.64,1.73-2.31,3.28-2.31,1.4,0,2.82.61,3.67,1.4l2.12-3.04c-2-1.49-4.01-2-6.16-2-3.52,0-7.01,2.19-7.01,5.98,0,2.4,1.34,3.85,3.01,4.83,2.85,1.67,6.8,2,6.8,4.74,0,1.55-1.27,2.67-3.1,2.67-1.94,0-3.79-1-5.01-2.34l-2.67,2.79c2.19,2,4.83,3.19,7.68,3.19,3.83,0,7.19-2.61,7.19-6.37,0-7.16-9.8-6.1-9.8-9.53Z"/><path class="cls-1" d="m211.21,190.94c-9.2,0-16-3.86-20.41-12.32-3.31-6.07-4.97-14.72-4.97-23.91,0-20.97,7.18-37.88,23.35-37.88,10.3,0,14.53,5.88,14.53,14.9,0,1.65-.37,3.86-.74,5.52-.37,1.66.18,2.94,1.29,3.68.92.74,2.39.92,3.68.92,4.23,0,7.91-2.94,7.91-8.09,0-13.43-12.51-19.49-26.67-19.49-26.85,0-39.54,20.41-39.54,42.29,0,13.06,2.95,22.25,8.46,28.69,6.07,7.36,14.16,11.03,27.4,11.03,15.63,0,27.58-8.27,31.63-23.35l-2.2-1.29c-3.68,11.77-10.66,19.31-23.72,19.31Z"/><path class="cls-1" d="m149.98,153.25c-6.44-2.94-17.1-7.36-22.07-9.93-4.78-2.39-7.54-6.07-7.54-11.77,0-9.2,6.25-14.53,14.71-14.53,12.14,0,19.68,10.12,20.04,24.46l2.02-.92c-.18-7.17-.18-16.73.92-27.03l-1.66-.55-2.02,6.8c-2.76-2.94-10.85-5.52-17.84-5.52-15.26,0-26.48,9.01-26.48,23.72,0,9.75,5.15,16,14.34,19.86,5.89,2.57,13.61,6.43,18.76,9.01,5.33,2.39,7.54,6.62,7.54,11.4,0,9.01-5.15,15.08-16.73,15.08-9.2,0-16.92-4.97-20.04-14.16-2.02-5.7-2.76-10.66-3.13-14.34l-2.02.74c.55,9.2.37,21.33.18,25.56,5.7,2.21,14.53,5.15,22.99,5.15,15.63,0,30.16-7.54,30.16-25.19,0-8.27-4.23-13.98-12.14-17.84Z"/><path class="cls-1" d="m99.22,163.54c-1.84,7.36-5.15,16.55-9.38,21.15-4.59,4.97-9.01,6.25-27.58,6.25-16.55,0-18.39-.92-18.76-4.78-.55-6.99-.74-22.8-.74-33.65v-17.83c2.21-.37,9.2-.37,12.69-.37,19.31,0,21.7,3.31,23.17,18.39h2.02c-.92-11.03-.74-25.38.37-37.33h-2.03c-1.47,12.32-4.6,15.63-23.35,15.63-2.57,0-10.66,0-12.87-.37v-20.41c0-12.69.55-21.88.74-27.95.18-2.21.74-2.94,2.76-2.94h14.53c19.86,0,21.88,2.02,24.46,8.27,2.02,5.15,2.94,10.48,3.68,15.81l2.2-.37c-.55-7.17-.18-23.35.37-28.5-2.57.92-12.51,1.65-25.38,1.65h-29.42c-9.01,0-20.78-.74-24.64-.74v2.21l8.28.74c4.6.37,6.07,1.66,6.25,5.33.36,5.88.55,17.1.55,34.02v34.39c0,12.14-.18,23.17-.55,31.26-.55,6.44-2.21,7.36-5.52,7.72l-10.66,1.29-.18,2.21h85.91c.92-4.78,4.94-26.85,5.12-30.71l-2.02-.37Z"/><path class="cls-1" d="m518.67,173.11l-2.02-1.11c-4.41,11.59-10.48,18.76-24.27,18.76-8.83,0-14.53-3.5-18.76-10.48-3.49-5.88-6.25-16.37-5.7-27.58h22.44c13.24-.18,22.62-.92,25.38-2.02,1.84-.74,2.76-3.86,2.76-7.17,0-7.91-3.86-29.24-29.61-29.24s-36.78,20.05-36.78,42.66c0,10.3,2.57,20.41,6.8,26.48,5.88,8.46,14.9,12.87,28.5,12.87,16,0,26.48-8.09,31.26-23.17Zm-30.71-56.09h.18c13.06,0,16.37,15.26,16.37,25.01,0,4.04-1.11,5.88-3.68,6.62-2.94.55-8.64,1.11-17.29,1.11h-15.26c.92-17.1,6.62-32.74,19.68-32.74Z"/><path class="cls-1" d="m568.87,114.26c-10.85,0-16.92,9.01-21.33,19.68h-.37c0-4.78-.55-15.26-1.11-18.76l-.55-.37c-4.97,2.02-17.1,3.13-22.8,3.31l-.18,2.02h5.88c2.39,0,3.13.92,3.5,2.39.73,3.13,1.47,10.67,1.47,22.99v18.02c0,12.51-.37,20.41-.74,24.28-.55,3.31-1.84,4.23-9.93,4.6l-.39,2.21h38.82l.37-2.21c-12.32-.55-13.43-1.47-13.61-5.15-.36-4.96-.36-13.05-.36-37.88,0-4.78.36-7.54,1.28-10.66,2.21-9.01,6.99-16.37,12.51-16.37,4.6,0,5.7,2.94,6.07,7.54.37,2.02,2.39,3.13,4.78,3.13s6.99-1.84,6.99-8.64c0-5.52-3.86-10.11-10.3-10.11Z"/><path class="cls-1" d="m282.74,114.26h-.18c-25.38,0-38.99,18.76-38.99,41.93s13.05,40.09,37.88,40.09c23.54,0,38.43-15.81,38.43-41.93,0-23.35-13.61-40.09-37.14-40.09Zm16.92,68.41c-3.68,7.91-9.01,11.03-16.55,11.03-8.09,0-14.71-4.41-18.57-12.32-2.94-6.43-4.78-16.92-4.78-27.58s1.66-20.23,4.97-26.48c3.86-6.62,9.2-10.3,16.92-10.3h.18c8.46,0,13.79,4.6,17.28,11.4,2.95,5.89,4.78,16.37,4.78,27.58,0,11.77-1.84,21.15-4.23,26.67Z"/><path class="cls-1" d="m440.34,187.45c-.37-3.68-.55-9.01-.55-22.62v-21.51c0-14.9.55-24.46,1.11-29.06-4.23,1.47-14.35,2.39-32.18,2.39h-16.74c0-15.45.92-22.99,2.02-28.87,1.84-13.24,9.56-18.76,18.2-18.76s12.87,5.15,12.87,12.69c0,2.76-.55,5.33-.55,6.62,0,2.94,2.57,4.6,5.52,4.6,5.7,0,8.64-3.86,8.64-8.83,0-7.91-6.8-18.02-24.83-18.02-12.13,0-21.33,5.52-27.03,11.95-2.94-4.96-10.48-9.56-20.78-9.56-15.08,0-24.83,7.54-30.71,16.55-4.23,6.25-6.43,15.08-6.43,26.48v5.15h-11.77l-.37,2.57,11.95.92v33.1c0,16-.55,31.08-1.1,34.94-.55,3.12-2.02,3.68-11.4,4.23v2.21h39.69l.22-2.21c-10.3-.55-12.32-.92-12.69-5.52-.18-4.04-.55-15.27-.55-32,0-13.61.18-25.56.36-34.76h34.02v33.1c0,16-.55,31.08-1.11,34.94-.37,3.12-1.84,3.86-10.66,4.23l-.18,2.21h39.69l.22-2.21c-10.3-.55-12.51-1.11-13.06-5.52-.37-4.41-.74-16-.74-32.37,0-13.24.18-25.2.37-34.39h22.62c7.54,0,9.93.55,10.3,2.2.55,2.39.92,8.83.92,21.7v16.92c0,14.34-.55,23.17-.92,26.66-.37,3.31-1.47,4.41-11.22,4.78l-.18,2.21h38.06l.18-2.21c-9.56-.37-10.66-.92-11.22-4.97Zm-63.07-70.8h-34.02c0-9.75.74-20.41,1.66-26.29,2.2-13.43,10.11-18.94,18.02-18.94,10.3,0,16.55,7.54,18.02,14.53-2.76,8.46-3.68,19.68-3.68,30.71Z"/></g><path class="cls-2" d="m96.72,31.48v.03c-.38-.51-.75-.96-1.11-1.35-.01-.01-.02-.03-.03-.04,0,0,0,0,0,0-1.89-2.27-4.74-3.72-7.93-3.72s-6.14,1.53-8.03,3.88c.89-.42,1.88-.67,2.93-.67,3.84,0,6.94,3.11,6.94,6.94s-3.11,6.94-6.94,6.94-6.81-3-6.92-6.73c1.37-.37,2.38-1.62,2.38-3.1,0-1.78-1.45-3.23-3.23-3.23s-3.23,1.45-3.23,3.23c0,1.05.51,1.98,1.29,2.57-1.42,2.48-4.08,4.15-7.14,4.15-4.55,0-8.24-3.69-8.24-8.24s3.69-8.24,8.24-8.24c3.02,0,5.65,1.63,7.09,4.05,0-.33-.02-.66-.05-.99-.5-6.01-5.53-10.73-11.66-10.73-1.1,0-2.16.17-3.16.45.21-1.16.33-2.35.33-3.57,0-5.05-1.92-9.64-5.04-13.12-3.13,3.48-5.04,8.07-5.04,13.12,0,1.22.12,2.41.33,3.57-1.01-.28-2.07-.45-3.16-.45-6.14,0-11.16,4.72-11.66,10.73-.03.32-.05.65-.05.99,1.43-2.42,4.07-4.05,7.09-4.05,4.55,0,8.24,3.69,8.24,8.24s-3.69,8.24-8.24,8.24c-3.06,0-5.72-1.67-7.14-4.15.78-.59,1.29-1.52,1.29-2.57,0-1.78-1.45-3.23-3.23-3.23s-3.23,1.45-3.23,3.23c0,1.49,1.01,2.73,2.38,3.1-.12,3.73-3.16,6.73-6.92,6.73s-6.94-3.11-6.94-6.94,3.11-6.94,6.94-6.94c1.05,0,2.04.25,2.93.67-1.89-2.36-4.77-3.88-8.03-3.88s-6.04,1.45-7.93,3.72c0,0,0,0,0,0-.01.01-.02.03-.03.04-.37.39-.74.84-1.11,1.35v-.03c-3.08-1.48-5.57-2.05-9.65-.96,0,0,11.93,7.18,14.24,27.64h77.89c2.31-20.46,14.24-27.64,14.24-27.64-4.07-1.09-6.57-.52-9.65.96Z"/><path class="cls-1" d="m568.75,215.15v1.76h-2.2v6.67h-1.91v-6.67h-2.2v-1.76h6.31Zm5.54,4.77l3.26-4.77h1.17v8.43h-1.96v-4.03l-2,2.88h-.97l-2-2.88v4.03h-1.96v-8.43h1.19l3.28,4.77Z"/></g></g></svg>